<svg width="31" height="30" viewBox="0 0 31 30" fill="none" xmlns="http://www.w3.org/2000/svg">
<path d="M15.0625 0C23.3815 0 30.126 6.71573 30.126 15C30.126 23.2843 23.3815 30 15.0625 30C8.32881 29.9998 2.62662 25.5998 0.698242 19.5293C1.43776 19.9454 4.18351 21.0846 4.33301 21.1318L6.34766 21.7959C7.25317 24.4721 10.1728 25.9066 12.8604 25.002C14.6133 24.4147 15.9111 22.9368 16.2646 21.1318L22.0566 17.0166C25.4658 16.6941 27.9641 13.6895 27.6445 10.3008C27.344 7.16742 24.7147 4.76123 21.543 4.72754C18.1485 4.73258 15.3883 7.44707 15.3447 10.8164L11.8682 15.0381C10.706 14.8696 9.52401 15.1193 8.53613 15.7402L4.71094 14.0176C4.55113 13.9454 1.55934 12.8578 1.41406 12.9492C1.26385 13.0454 0.79729 13.08 0.796875 13.2578L1.19727 19.5303C0.942456 19.4559 0.766195 19.4152 0.657227 19.3955C0.230024 18.0054 0 16.5294 0 15C0 6.71587 6.74367 0.000234564 15.0625 0ZM11.8828 17.5938C12.0087 17.3387 12.3138 17.2334 12.5752 17.3584C14.1151 18.0997 14.7643 19.9381 14.0186 21.4736C13.6602 22.21 13.0257 22.7734 12.2461 23.043C11.9072 23.1536 11.5633 23.2109 11.21 23.2109C10.7453 23.2109 10.2854 23.1053 9.86914 22.9033C9.61249 22.7782 9.50593 22.4748 9.63184 22.2148C9.75777 21.9598 10.0628 21.8534 10.3242 21.9785C11.3363 22.4983 12.5854 22.1085 13.1084 21.0977C13.6311 20.087 13.2392 18.85 12.2227 18.3301C12.1888 18.3108 12.154 18.2967 12.1201 18.2822C11.8637 18.157 11.757 17.8536 11.8828 17.5938ZM21.5439 7.80762C23.2554 7.80781 24.6425 9.18745 24.6426 10.8887C24.6424 12.5898 23.2554 13.9686 21.5439 13.9688C19.8324 13.9688 18.4445 12.5899 18.4443 10.8887C18.4444 9.18733 19.8323 7.80762 21.5439 7.80762ZM21.5439 8.83301C20.4021 8.83311 19.4766 9.75364 19.4766 10.8887C19.4768 12.0236 20.4021 12.9433 21.5439 12.9434C22.6858 12.9433 23.6121 12.0236 23.6123 10.8887C23.6122 9.7536 22.6859 8.83304 21.5439 8.83301Z" fill="#FFB548"/>
</svg>
