<svg width="20" height="19" viewBox="0 0 20 19" fill="none" xmlns="http://www.w3.org/2000/svg">
<path d="M19.1494 12.9453L16.5957 15.4502H10.2129L7.65918 18.165H5.31934V14.4062H0V2.29688L2.12793 0H19.1494V12.9453ZM3.19141 1.6709C2.9574 1.6709 2.76568 1.85827 2.76562 2.08789V12.3184C2.76562 12.548 2.95736 12.7363 3.19141 12.7363H6.5957V14.6152C6.5957 14.7718 6.68062 14.9132 6.82422 14.9863C6.88805 15.0176 6.95234 15.0332 7.02148 15.0332C7.10649 15.0331 7.19167 15.0069 7.26074 14.96L10.5586 12.7363H14.4678C14.5795 12.7363 14.6917 12.6945 14.7715 12.6162L17.1113 10.3193C17.191 10.2411 17.2343 10.1371 17.2344 10.0225V2.08789C17.2343 1.85832 17.0425 1.67099 16.8086 1.6709H3.19141Z" fill="white"/>
<path d="M12.9787 9.08256V4.90674H11.2766V9.08256H12.9787ZM8.72337 9.08256V4.90674H7.02124V9.08256H8.72337Z" fill="white"/>
</svg>
