<svg width="31" height="30" viewBox="0 0 31 30" fill="none" xmlns="http://www.w3.org/2000/svg">
<path d="M9.92733 2.65335C11.5116 3.27457 13.043 4.09504 14.4864 5.09719C14.6507 5.20854 14.8384 5.26714 15.0262 5.26714C15.2139 5.26714 15.4017 5.20854 15.566 5.09719C17.0094 4.09504 18.5408 3.26871 20.1251 2.64749C20.483 2.50684 20.7235 2.15521 20.7177 1.76841C20.7177 1.38162 20.4771 1.03585 20.1133 0.901055C16.9449 -0.300352 13.1075 -0.300352 9.94493 0.901055C9.58701 1.03585 9.34058 1.38748 9.34058 1.76841C9.34058 2.14935 9.56354 2.5127 9.92733 2.65335Z" fill="#FFB548"/>
<path d="M23.5347 2.65866C23.2354 2.45354 22.854 2.43596 22.5313 2.61763C20.7769 3.62564 19.0812 4.78016 17.4794 6.0519C17.2681 6.22185 17.1391 6.47385 17.1273 6.74344C17.1156 7.01302 17.2212 7.27674 17.4148 7.46428C20.7358 10.6231 25.336 20.3105 26.3921 24.7645C24.1038 20.8966 18.9991 11.7952 15.6604 8.68327C15.3025 8.34922 14.7392 8.34922 14.3813 8.68327C11.0368 11.7952 5.94967 20.9025 3.66134 24.7763C4.71749 20.3223 9.3059 10.6231 12.6269 7.46428C12.8264 7.27674 12.932 7.01302 12.9203 6.74344C12.9086 6.47385 12.7795 6.22185 12.5682 6.0519C10.9664 4.78016 9.26483 3.62564 7.5163 2.61763C7.20533 2.43596 6.8122 2.45354 6.51296 2.65866C2.43502 5.46584 0 10.0781 0 15.0009C0 18.5993 1.29672 22.0687 3.66134 24.7763C6.48949 28.0933 10.6261 30.0038 15.0209 30.0038C19.4157 30.0038 23.5581 28.0992 26.3921 24.7704C28.745 22.0746 30.0417 18.6051 30.0417 15.0009C30.0417 10.0781 27.6067 5.46584 23.5347 2.65866Z" fill="#FFB548"/>
</svg>
